<svg width="291" height="302" viewBox="0 0 291 302" fill="none" xmlns="http://www.w3.org/2000/svg">
<path d="M162.168 0C116.87 28.1388 75.9488 56.7537 39.4016 85.7416C11.449 65.2665 -18.6474 45.0103 -50.911 24.97C-24.292 51.6413 -0.0580292 75.6591 23.2826 98.8072C11.0303 108.928 -0.708206 119.068 -11.8985 129.271C-53.7019 97.7225 -99.9046 66.573 -150.508 35.8918C-107.481 77.3662 -69.009 113.873 -32.5845 148.749C-42.6364 158.539 -52.416 168.604 -61.912 178.935C-93.9824 154.664 -129.067 130.673 -167.18 107C-134.663 139.581 -105.224 168.679 -77.3573 196.359C-121.355 247.693 -152.272 299.787 -170 352.165C-127.487 300.576 -90.1706 258.082 -54.2825 219.305C-45.535 228.041 -36.9278 236.694 -28.3863 245.318C-73.2082 297.235 -104.626 349.945 -122.561 402.935C-79.505 350.687 -41.7742 307.78 -5.46439 268.603C3.74071 278.032 12.8936 287.511 21.994 297.041C-27.0173 351.834 -61.0647 407.531 -80.0237 463.551C-33.9593 407.651 6.00931 362.418 44.6717 321.029C84.5531 363.691 125.774 410.302 173.321 468C153.782 410.267 118.6 352.879 67.93 296.427C76.0322 287.945 84.1206 279.566 92.2326 271.241C143.197 323.14 195.641 379.563 257.012 450.636C230.716 381.047 184.669 311.877 119.077 243.939C126.971 235.976 134.932 228.017 143.012 219.951C189.013 268.285 235.753 320.402 291 387.442C269.151 322.888 227.824 258.743 167.221 195.869C193.644 169.634 221.459 142.131 252.172 111.357C215.794 133.954 182.241 156.852 151.502 180.01C139.753 168.481 127.352 156.993 114.297 145.56C143.751 116.261 174.87 85.5757 209.604 50.7705C167.907 76.6722 129.916 102.981 95.6325 129.608C84.0395 119.95 72.2495 110.53 60.27 101.357C91.6609 70.0795 124.831 37.4124 162.165 0.00196408L162.168 0ZM43.1105 118.504C52.9792 128.299 62.8266 138.115 72.6528 147.953C62.6584 156.17 52.8296 164.587 43.1723 173.199C33.312 164.861 23.3205 156.679 13.2014 148.658C23.0531 138.626 33.0352 128.599 43.1115 118.502L43.1105 118.504ZM92.1728 167.645C103.086 178.686 113.909 189.717 124.688 200.869C115.707 208.069 106.849 215.423 98.1185 222.926C87.7939 212.898 77.2593 203.09 66.5217 193.506C75.0448 184.859 83.5951 176.239 92.1728 167.646V167.645ZM-8.95651 171.45C-0.130768 179.947 8.67458 188.465 17.4594 197.005C8.83493 205.336 0.404892 213.866 -7.82385 222.588C-16.9731 214.695 -26.26 206.964 -35.6804 199.397C-26.7466 189.924 -17.8491 180.656 -8.95651 171.45ZM40.8118 219.796C50.4675 229.303 60.08 238.855 69.649 248.45C61.3516 256.212 53.2185 264.149 45.2552 272.255C36.0349 262.849 26.5934 253.664 16.9387 244.706C24.853 236.361 32.8108 228.057 40.8118 219.796Z" fill="black" fill-opacity="0.1"/>
</svg>
