<svg width="57" height="32" viewBox="0 0 57 32" fill="none" xmlns="http://www.w3.org/2000/svg">
  <path d="M34.4 10.5556H21.6V21.4444L29.0336 14.2158C29.1079 14.1435 29.1961 14.0861 29.2932 14.047C29.3904 14.0078 29.4945 13.9877 29.5996 13.9877C29.7047 13.9877 29.8088 14.0078 29.906 14.047C30.0031 14.0861 30.0913 14.1435 30.1656 14.2158L34.4 18.3411V10.5556ZM20 9.77233C20.0015 9.56807 20.0855 9.37257 20.234 9.22806C20.3825 9.08355 20.5835 9.00163 20.7936 9H35.2064C35.6448 9 36 9.34611 36 9.77233V22.2277C35.9985 22.4319 35.9145 22.6274 35.766 22.7719C35.6175 22.9165 35.4165 22.9984 35.2064 23H20.7936C20.5831 22.9998 20.3812 22.9183 20.2324 22.7735C20.0836 22.6287 20 22.4324 20 22.2277V9.77233ZM24.8 15.2222C24.3757 15.2222 23.9687 15.0583 23.6686 14.7666C23.3686 14.4749 23.2 14.0792 23.2 13.6667C23.2 13.2541 23.3686 12.8584 23.6686 12.5667C23.9687 12.275 24.3757 12.1111 24.8 12.1111C25.2243 12.1111 25.6313 12.275 25.9314 12.5667C26.2314 12.8584 26.4 13.2541 26.4 13.6667C26.4 14.0792 26.2314 14.4749 25.9314 14.7666C25.6313 15.0583 25.2243 15.2222 24.8 15.2222Z" fill="#FFFFFF"/>
  <rect x="0.5" y="0.5" width="56" height="31" rx="2.5" stroke-opacity="0"/>
</svg>