<svg width="55" height="55" viewBox="0 0 55 55" fill="none" xmlns="http://www.w3.org/2000/svg">
<path d="M32.8556 28.4925C31.5833 28.8328 31.4406 28.905 30.1872 29.2625C28.8359 28.4925 27.6444 28.0543 26.5252 28.1969C26.6593 27.4991 26.8742 26.9973 27.0891 26.37C29.4617 26.0211 31.2257 27.2843 32.8556 28.4925ZM45.0247 44.9903C43.7008 46.3121 42.2318 47.4802 40.6457 48.4724H40.6371L32.1472 37.9007L39.186 38.6707C39.186 38.6707 42.5627 39.0196 43.3312 38.6707C44.0378 38.4025 47.8271 33.0574 47.8271 33.0574C47.8271 33.0574 36.92 26.1654 33.196 22.3688C33.6258 15.9684 32.7043 7.4557 32.7043 7.51758C29.9723 10.2572 29.6147 10.6869 26.8742 13.2202C25.6827 9.35315 25.1102 8.02803 23.9187 4.15237C20.3271 7.10681 17.5883 12.0927 15.618 17.938C15.1796 18.4296 14.7584 18.9314 14.356 19.4419C14.105 19.7994 13.8282 20.1586 13.5686 20.5333C13.0408 21.2757 12.5388 22.0818 12.0556 22.8965C11.7066 23.4877 11.3662 24.0875 11.043 24.7045C10.9003 24.9555 10.7559 25.2322 10.6132 25.502C8.52594 29.6011 6.77227 34.1849 5.25758 38.3476C3.60972 34.9677 2.75253 31.2574 2.75086 27.4974C2.75086 20.9354 5.36589 14.6347 10.0045 9.98734C14.6464 5.35068 20.9397 2.74571 27.5017 2.74476C34.0696 2.74428 40.3693 5.34909 45.0178 9.98734C49.6539 14.636 52.2558 20.9333 52.2526 27.4974C52.2531 34.0538 49.6547 40.3432 45.0264 44.9886L45.0247 44.9903ZM27.5 15.3342C29.4067 13.4986 29.6766 13.2219 31.5111 11.4671C31.6538 14.9767 31.5833 16.8106 31.3684 21.0901C30.311 20.0434 28.2066 18.6994 28.2066 18.6994C28.2066 18.6994 27.7854 16.2468 27.5 15.3342ZM36.2942 50.7737C21.1249 56.2529 10.1644 46.1539 7.82791 42.6271C7.83651 42.5996 7.83651 42.5652 7.83651 42.5377C9.94952 33.6315 12.556 22.979 16.7459 19.8269C18.9311 16.032 19.5672 10.4016 23.4889 7.4557C24.4826 10.4016 26.0231 16.5235 27.0891 19.4694C31.7277 24.115 38.7476 29.8898 43.467 32.2874C43.9587 32.5555 44.5863 34.5338 44.5863 34.5338L42.6968 36.9056L22.4505 34.8741C21.995 34.8312 21.5377 34.8105 21.0802 34.8122C19.7821 34.8122 18.448 34.9823 16.88 35.2247C17.8737 32.7721 19.9781 30.7939 19.9781 30.7939C19.9781 30.7939 18.0164 29.6028 16.5309 29.4069C16.9522 28.4135 18.0886 27.1417 18.3585 26.7928C17.8032 26.999 13.7199 28.8346 13.2987 30.3831C15.2604 30.8661 16.6651 31.4934 16.6651 31.4934C16.6651 31.4934 14.4884 33.6865 14.0775 37.4813C14.0775 37.4813 20.542 36.4965 25.3956 37.1324C25.5383 37.1943 25.6105 37.1943 25.6827 37.1943L28.2083 37.2665L36.3131 50.7565C36.3131 50.7588 36.3126 50.761 36.3118 50.7631C36.3109 50.7652 36.3096 50.7671 36.308 50.7687C36.3064 50.7703 36.3045 50.7716 36.3025 50.7724C36.3004 50.7733 36.2964 50.7737 36.2942 50.7737ZM46.9503 8.05725C41.7924 2.90116 34.7984 0.0103122 27.5 0C20.2054 0.00675343 13.211 2.90417 8.0497 8.05725C2.90903 13.2133 0 20.205 0 27.5009C0 34.7967 2.91075 41.7884 8.0497 46.9256C13.199 52.0988 20.2016 55 27.5 55C34.7984 55 41.801 52.0988 46.9503 46.9256C52.1168 41.7867 55 34.7967 55 27.5009C55 20.205 52.1168 13.2133 46.9503 8.05725Z" fill="#271515"/>
</svg>
