<svg width="282" height="282" viewBox="0 0 282 282" fill="none" xmlns="http://www.w3.org/2000/svg">
<path d="M168.46 146.089C161.936 147.834 161.205 148.204 154.778 150.037C147.849 146.089 141.74 143.842 136.002 144.573C136.689 140.996 137.791 138.422 138.893 135.206C151.058 133.417 160.103 139.894 168.46 146.089ZM230.854 230.678C224.066 237.455 216.534 243.444 208.401 248.531H208.357L164.828 194.327L200.917 198.275C200.917 198.275 218.23 200.064 222.171 198.275C225.794 196.9 245.223 169.494 245.223 169.494C245.223 169.494 189.299 134.157 170.205 114.691C172.409 81.8744 167.684 38.2274 167.684 38.5447C153.676 52.5914 151.843 54.7944 137.791 67.7836C131.682 47.9561 128.747 41.1619 122.638 21.2903C104.223 36.4385 90.18 62.0028 80.0778 91.9732C77.8299 94.4935 75.6701 97.0667 73.6074 99.6839C72.3203 101.517 70.9011 103.359 69.57 105.28C66.8637 109.087 64.2896 113.219 61.8126 117.396C60.0231 120.428 58.2776 123.503 56.6204 126.667C55.8887 127.953 55.1482 129.372 54.4166 130.756C43.7148 151.773 34.7233 175.275 26.957 196.618C18.508 179.289 14.1129 160.265 14.1044 140.987C14.1044 107.342 27.5124 75.0361 51.296 51.2078C75.0961 27.4344 107.363 14.078 141.009 14.0731C174.684 14.0707 206.984 27.4262 230.819 51.2078C254.589 75.0426 267.93 107.331 267.913 140.987C267.916 174.603 254.593 206.851 230.863 230.669L230.854 230.678ZM141 78.6227C150.776 69.2112 152.16 67.7924 161.566 58.7952C162.298 76.7897 161.936 86.1924 160.834 108.135C155.413 102.768 144.623 95.877 144.623 95.877C144.623 95.877 142.463 83.302 141 78.6227ZM186.09 260.331C108.313 288.424 52.1158 236.643 40.1359 218.561C40.1799 218.42 40.1799 218.244 40.1799 218.103C51.0139 172.438 64.3778 117.819 85.8606 101.658C97.0648 82.2004 100.326 53.3316 120.434 38.2274C125.529 53.3316 133.428 84.7207 138.893 99.8249C162.677 123.644 198.669 153.253 222.867 165.546C225.388 166.921 228.606 177.064 228.606 177.064L218.918 189.225L115.11 178.809C112.774 178.589 110.43 178.483 108.084 178.492C101.428 178.492 94.5877 179.364 86.5482 180.607C91.6434 168.031 102.433 157.889 102.433 157.889C102.433 157.889 92.375 151.782 84.7587 150.777C86.9184 145.684 92.7453 139.163 94.1293 137.374C91.282 138.431 70.3457 147.843 68.186 155.783C78.2442 158.259 85.4463 161.475 85.4463 161.475C85.4463 161.475 74.2861 172.72 72.1793 192.177C72.1793 192.177 105.325 187.128 130.21 190.388C130.942 190.705 131.312 190.705 131.682 190.705L144.632 191.075L186.187 260.243C186.187 260.254 186.185 260.266 186.18 260.276C186.176 260.287 186.169 260.297 186.161 260.305C186.153 260.313 186.143 260.32 186.133 260.324C186.122 260.328 186.102 260.331 186.09 260.331ZM240.727 41.3117C214.281 14.875 178.421 0.0528733 141 0C103.599 0.0346267 67.7363 14.8905 41.273 41.3117C14.9154 67.7484 0 103.597 0 141.004C0 178.412 14.9242 214.26 41.273 240.6C67.6747 267.125 103.579 282 141 282C178.421 282 214.325 267.125 240.727 240.6C267.217 214.252 282 178.412 282 141.004C282 103.597 267.217 67.7484 240.727 41.3117Z" fill="white"/>
</svg>
