<svg width="14" height="14" viewBox="0 0 14 14" fill="none" xmlns="http://www.w3.org/2000/svg">
<path d="M7 10.4045C6.75208 10.4045 6.54442 10.3182 6.377 10.1456C6.209 9.97363 6.125 9.7603 6.125 9.50562V3.07865L4.48438 4.76405C4.30937 4.94382 4.10521 5.03371 3.87188 5.03371C3.63854 5.03371 3.42708 4.93633 3.2375 4.74157C3.0625 4.5618 2.97879 4.34817 2.98638 4.10067C2.99338 3.85378 3.07708 3.64794 3.2375 3.48315L6.3875 0.247191C6.475 0.157303 6.56979 0.093483 6.67188 0.0557302C6.77396 0.0185766 6.88333 0 7 0C7.11667 0 7.22604 0.0185766 7.32812 0.0557302C7.43021 0.093483 7.525 0.157303 7.6125 0.247191L10.7625 3.48315C10.9375 3.66292 11.0212 3.87625 11.0136 4.12315C11.0066 4.37064 10.9229 4.57678 10.7625 4.74157C10.5875 4.92135 10.3798 5.01483 10.1395 5.02202C9.89858 5.02981 9.69063 4.94382 9.51562 4.76405L7.875 3.07865V9.50562C7.875 9.7603 7.79129 9.97363 7.62388 10.1456C7.45588 10.3182 7.24792 10.4045 7 10.4045ZM1.75 14C1.26875 14 0.856917 13.8241 0.5145 13.4724C0.1715 13.12 0 12.6966 0 12.2022V10.4045C0 10.1498 0.0837085 9.93618 0.251125 9.7636C0.419125 9.59161 0.627083 9.50562 0.875 9.50562C1.12292 9.50562 1.33087 9.59161 1.49887 9.7636C1.66629 9.93618 1.75 10.1498 1.75 10.4045V12.2022H12.25V10.4045C12.25 10.1498 12.334 9.93618 12.502 9.7636C12.6694 9.59161 12.8771 9.50562 13.125 9.50562C13.3729 9.50562 13.5806 9.59161 13.748 9.7636C13.916 9.93618 14 10.1498 14 10.4045V12.2022C14 12.6966 13.8288 13.12 13.4864 13.4724C13.1434 13.8241 12.7312 14 12.25 14H1.75Z" fill="#F8F8F8"/>
</svg>
